<?xml version="1.0" encoding="utf-8"?>
<!-- Generator: Adobe Illustrator 27.3.1, SVG Export Plug-In . SVG Version: 6.00 Build 0)  -->
<svg version="1.1" id="Layer_1" xmlns="http://www.w3.org/2000/svg" xmlns:xlink="http://www.w3.org/1999/xlink" x="0px" y="0px"
	 viewBox="0 0 400 400" style="enable-background:new 0 0 400 400;" xml:space="preserve">
<style type="text/css">
	.st0{fill:#58595B;}
	.st1{fill:#F15A29;}
</style>
<path class="st0" d="M161.8,296.8c0-0.4,0.1-0.6,0.2-0.7c0.2-0.1,0.4-0.1,0.6-0.1h2.8l4.4,14.1c0.1,0.5,0.3,1,0.4,1.5
	c0.2,0.5,0.3,1.1,0.5,1.6s0.3,1,0.4,1.4l0.2,0.7c0,0,0-0.2,0.1-0.6c0.1-0.4,0.2-0.8,0.4-1.4c0.1-0.5,0.3-1.1,0.4-1.6
	s0.3-1.1,0.4-1.5l4.1-13.5c0-0.2,0.1-0.4,0.2-0.6c0.1-0.2,0.3-0.2,0.5-0.2h3.1v32c0,0.1,0,0.3-0.1,0.4c0,0.1-0.2,0.2-0.4,0.2
	c-0.4,0.1-0.8,0.1-1.1,0.1h-2.2l0.1-11.4c0-1.1,0.1-2.4,0.2-3.8c0.1-1.4,0.2-2.8,0.3-4.2c0.1-1.3,0.2-2.5,0.3-3.6
	c0.1-1.1,0.1-1.8,0.2-2.1l-0.8,3l-0.9,3.2c-0.3,1-0.5,1.9-0.8,2.7s-0.4,1.3-0.5,1.6l-2.5,7.1c0,0.1-0.1,0.2-0.2,0.3
	c-0.1,0-0.2,0.1-0.3,0.1H170l-2.4-7.5c-0.1-0.2-0.3-0.8-0.5-1.6c-0.2-0.8-0.5-1.7-0.8-2.7s-0.6-2.1-0.9-3.2l-0.8-3l0,0
	c0.2,1.7,0.3,3.3,0.4,5c0.1,1.4,0.2,2.9,0.3,4.5c0.1,1.6,0.1,3,0.2,4.2l0.1,10.8c0,0.2,0,0.3-0.1,0.4c-0.1,0.1-0.3,0.2-0.5,0.2
	c-0.4,0.1-0.8,0.1-1.1,0.1h-2.1L161.8,296.8z"/>
<path class="st0" d="M204,320.5h-8l-1.8,7.7c0,0.2-0.2,0.4-0.4,0.6c-0.4,0.2-0.9,0.2-1.4,0.2h-1.1c-0.4,0-0.9-0.1-1.3-0.1l8.3-32.2
	c0.1-0.4,0.6-0.7,1.4-0.7c0.6,0,1.2,0,1.8,0.1l8.4,32.1c0.1,0.2,0,0.5-0.2,0.6c-0.5,0.2-0.9,0.3-1.4,0.2h-1c-0.4,0-0.9,0-1.3-0.1
	L204,320.5z M196.7,317h6.5l-1.6-6.6c-0.2-0.8-0.4-1.6-0.5-2.4s-0.3-1.6-0.5-2.4s-0.3-1.5-0.4-2.3s-0.2-1.4-0.3-1.9
	c-0.1,0.6-0.2,1.2-0.3,1.9c-0.1,0.7-0.3,1.5-0.4,2.2s-0.3,1.6-0.4,2.4c-0.2,0.8-0.3,1.6-0.5,2.4L196.7,317z"/>
<path class="st0" d="M227.1,315.9c-0.2-0.5-0.5-1.4-0.9-2.5l-1.2-3.6c-0.4-1.3-0.9-2.6-1.3-3.9c-0.4-1.3-0.8-2.4-1.1-3.3
	c0.1,0.7,0.1,1.8,0.2,3.2c0.1,1.4,0.1,2.8,0.2,4.2c0,1.4,0.1,2.8,0.1,4c0,1.2,0,2.1,0,2.6V328c0,0.1,0,0.3-0.1,0.4
	c0,0.1-0.2,0.2-0.4,0.2c-0.4,0.1-0.7,0.1-1.1,0.1h-2.2v-31.9c-0.1-0.4,0.2-0.7,0.6-0.8c0.1,0,0.1,0,0.2,0h2.9l5.2,12.6l0.9,2.6
	c0.4,1.1,0.8,2.3,1.2,3.6c0.4,1.3,0.9,2.6,1.3,3.8l1,3.2v-0.1c-0.1-0.7-0.2-1.7-0.2-3c0-1.3-0.1-2.7-0.1-4.1c0-1.4-0.1-2.8-0.1-4
	c0-1.2,0-2.1,0-2.7v-11c0-0.1,0-0.3,0.1-0.4c0-0.1,0.2-0.2,0.4-0.2c0.4-0.1,0.8-0.1,1.1-0.1c0.5,0,1.2,0,2.2,0v32
	c0,0.5-0.3,0.8-0.8,0.8h-2.9L227.1,315.9z"/>
<path class="st0" d="M258.9,325.4c0,0.8,0,1.4,0,1.9c0,0.3,0,0.7-0.1,1c0,0.2-0.1,0.3-0.2,0.4c-0.1,0.1-0.3,0.1-0.4,0.1h-11.1v-32
	c0-0.1,0-0.3,0.1-0.4c0.1-0.1,0.2-0.2,0.3-0.3c0.1-0.1,0.3-0.2,0.4-0.1h11.2v1.9c0,0.3,0,0.7-0.1,1c0,0.2-0.1,0.3-0.2,0.4
	c-0.1,0.1-0.3,0.1-0.4,0.1h-7.4v9.8h7v1.8c0,0.4,0,0.7-0.1,1.1c0,0.2-0.1,0.4-0.2,0.5c-0.1,0.1-0.3,0.2-0.4,0.1h-6.3v12.6
	L258.9,325.4z"/>
<path class="st0" d="M267.9,312.2c0-2.6,0.1-5.3,0.5-7.9c0.2-1.8,0.8-3.5,1.7-5.1c0.6-1.2,1.6-2.2,2.8-2.8c2.5-1.1,5.3-1.1,7.8,0
	c1.1,0.6,2,1.5,2.6,2.7c0.8,1.6,1.2,3.3,1.4,5.1c0.3,2.6,0.5,5.3,0.5,7.9c0,2.2-0.1,4.5-0.3,6.7c-0.2,1.7-0.5,3.3-1,4.9
	c-0.4,1.2-0.9,2.3-1.7,3.2c-0.7,0.8-1.5,1.4-2.5,1.8c0.1,0.9,0.4,1.8,0.9,2.6c0.4,0.5,1,0.8,1.6,0.8c0.5,0,1-0.1,1.5-0.2
	c0.5-0.1,1-0.3,1.4-0.6c0.2,0.3,0.3,0.6,0.4,1c0.1,0.3,0.1,0.7,0.1,1c0,0.4-0.2,0.7-0.5,0.9c-0.3,0.3-0.7,0.5-1.1,0.6
	c-0.4,0.1-0.9,0.2-1.4,0.3c-0.5,0-0.9,0.1-1.3,0.1c-1.4,0.1-2.8-0.4-3.9-1.4c-1.1-1.3-1.9-2.9-2.2-4.6c-1.2,0-2.4-0.4-3.4-1
	c-1-0.7-1.8-1.7-2.3-2.8c-0.7-1.6-1.1-3.4-1.3-5.1C268,317.6,267.9,314.9,267.9,312.2z M272.2,313.1c0,2.2,0.1,4,0.2,5.6
	c0.1,1.3,0.3,2.5,0.7,3.8c0.2,0.8,0.7,1.6,1.3,2.1c0.6,0.5,1.3,0.7,2.1,0.7c0.8,0,1.5-0.2,2.1-0.7c0.7-0.6,1.2-1.4,1.4-2.3
	c0.4-1.3,0.7-2.7,0.8-4.1c0.2-1.7,0.2-3.7,0.2-6.1c0-2.4-0.1-4.4-0.2-5.9c-0.1-1.3-0.3-2.6-0.7-3.9c-0.2-0.8-0.7-1.6-1.3-2.2
	c-0.6-0.5-1.3-0.7-2.1-0.7c-0.8,0-1.5,0.2-2.1,0.7c-0.7,0.6-1.2,1.4-1.4,2.3c-0.4,1.4-0.7,2.8-0.8,4.2
	C272.3,308.5,272.2,310.6,272.2,313.1z"/>
<path class="st0" d="M299.2,319.3c0,0.9,0,1.7,0.1,2.6c0.1,0.7,0.3,1.4,0.6,2c0.3,0.6,0.8,1,1.4,1.3c0.7,0.3,1.5,0.5,2.4,0.5
	c0.8,0,1.6-0.1,2.4-0.3c0.6-0.1,1.2-0.3,1.8-0.6v-28c0-0.1,0-0.3,0.1-0.4c0-0.1,0.2-0.2,0.4-0.2c0.4-0.1,0.8-0.1,1.1-0.1
	c0.5,0,1.3,0,2.2,0v31.6c-0.9,0.5-2,0.9-3,1.1c-1.6,0.4-3.3,0.6-4.9,0.6c-1.5,0.1-3.1-0.2-4.5-0.8c-1-0.5-1.9-1.2-2.5-2.2
	c-0.6-1-1-2-1.1-3.2c-0.2-1.3-0.3-2.6-0.3-3.9v-22.5c0-0.1,0-0.3,0.1-0.4c0-0.1,0.2-0.2,0.4-0.2c0.4-0.1,0.8-0.1,1.1-0.1
	c0.5,0,1.3,0,2.3,0L299.2,319.3z"/>
<path class="st0" d="M322.6,297.7c0-0.3,0-0.7,0.1-1c0-0.2,0.2-0.4,0.4-0.5c0.4-0.1,0.8-0.2,1.1-0.2c0.5,0,1.3,0,2.2,0v32
	c0,0.1,0,0.3-0.1,0.4c0,0.1-0.2,0.2-0.4,0.2c-0.4,0.1-0.8,0.1-1.1,0.1h-2.2V297.7z"/>
<path class="st0" d="M345.2,315.9c-0.2-0.5-0.5-1.4-0.9-2.5l-1.2-3.6c-0.4-1.3-0.9-2.6-1.3-3.9c-0.4-1.3-0.8-2.4-1-3.3
	c0.1,0.7,0.1,1.8,0.2,3.2c0.1,1.4,0.1,2.8,0.2,4.2c0,1.4,0.1,2.8,0.1,4c0,1.2,0,2.1,0,2.6V328c0,0.1,0,0.3-0.1,0.4
	c0,0.1-0.2,0.2-0.4,0.2c-0.4,0.1-0.7,0.1-1.1,0.1h-2.2v-31.9c-0.1-0.4,0.2-0.7,0.6-0.8c0.1,0,0.1,0,0.2,0h2.9l5.2,12.6l0.9,2.6
	c0.4,1.1,0.8,2.3,1.2,3.6s0.9,2.6,1.3,3.8l1,3.2v-0.1c-0.1-0.7-0.2-1.7-0.2-3c0-1.3-0.1-2.7-0.1-4.1c0-1.4-0.1-2.8-0.1-4
	c0-1.2,0-2.1,0-2.7v-11c0-0.1,0-0.3,0.1-0.4c0-0.1,0.2-0.2,0.4-0.2c0.4-0.1,0.8-0.1,1.1-0.1c0.5,0,1.2,0,2.2,0v32
	c0,0.5-0.3,0.8-0.8,0.8h-2.9L345.2,315.9z"/>
<path class="st0" d="M372.1,295.5c1.6-0.1,3.2,0.1,4.8,0.7c0.9,0.5,1.4,1,1.4,1.7c0,0.4-0.1,0.7-0.2,1.1c-0.2,0.4-0.4,0.8-0.7,1.1
	c-0.5-0.3-1.1-0.6-1.7-0.8c-0.9-0.3-1.9-0.4-2.9-0.4c-1.2-0.1-2.3,0.2-3.3,0.9c-0.8,0.5-1.2,1.4-1.2,2.4c0,0.8,0.2,1.6,0.5,2.3
	c0.5,0.8,1,1.6,1.6,2.3l5.1,5.8c0.5,0.6,1,1.3,1.5,2c0.4,0.6,0.7,1.2,1,1.9c0.2,0.6,0.4,1.3,0.5,1.9c0.1,0.7,0.1,1.3,0.1,2
	c0,1.1-0.1,2.3-0.4,3.4c-0.3,1-0.7,2-1.4,2.8c-0.7,0.8-1.6,1.5-2.6,1.9c-1.3,0.5-2.6,0.7-4,0.7c-1.6,0.1-3.2-0.2-4.7-0.9
	c-1-0.6-1.5-1.2-1.5-1.9c0-0.4,0.1-0.9,0.2-1.3c0.2-0.5,0.4-1,0.8-1.4c0.6,0.5,1.2,0.9,1.9,1.1c0.9,0.3,1.9,0.5,2.9,0.5
	c1.3,0.1,2.6-0.3,3.6-1.3c0.7-1,1.1-2.2,1-3.5c0-1-0.2-2-0.6-2.9c-0.6-1.1-1.3-2.2-2.1-3.1l-4.7-5.5c-0.9-1.1-1.7-2.3-2.2-3.5
	c-0.4-1-0.7-2.1-0.7-3.2c-0.1-1.8,0.7-3.6,2-4.8C367.4,296.2,369.4,295.5,372.1,295.5z"/>
<path class="st0" d="M38.8,182c4.4,0,7.6,0.8,9.6,2.4s3,3,3,4.4c0,0.9-0.1,1.7-0.4,2.6c-0.2,0.7-0.5,1.4-0.9,2
	c-0.4-0.4-0.9-0.8-1.3-1.1c-0.7-0.5-1.5-0.9-2.2-1.4c-1-0.5-2-0.9-3-1.2c-1.2-0.4-2.4-0.5-3.6-0.5c-2.4,0-4.8,0.5-7,1.5
	c-2.3,1-4.4,3-6.3,6.1s-3.3,7.7-4.5,13.7c-1.2,6.1-1.8,14.2-1.8,24.3c-0.1,6.2,0.3,12.5,1.4,18.7c0.6,3.8,1.8,7.5,3.6,10.9
	c1.5,2.6,3.2,4.2,5.1,4.9c1.9,0.7,4,1.1,6,1.1c3,0,5.9-0.7,8.5-2c2.1-1,3.9-2.3,5.5-4c0.4,0.7,0.7,1.4,0.9,2.2
	c0.3,0.8,0.4,1.7,0.4,2.6c0,1.2-0.5,2.3-1.3,3.2c-1,1.2-2.2,2.2-3.5,3c-1.6,1-3.4,1.7-5.2,2.2c-2.2,0.6-4.4,0.9-6.7,0.9
	c-2.7,0-5.4-0.3-8.1-1c-2.7-0.7-5.1-2.5-7.2-5.5c-2.1-3-3.9-7.4-5.1-13.2c-1.3-5.9-2-13.9-2-24c0-11.9,0.8-21.3,2.4-28.3
	s3.7-12.3,6.2-15.8c2.5-3.5,5.3-5.9,8.4-6.9C32.6,182.6,35.7,182,38.8,182z"/>
<path class="st0" d="M57.6,229.6c-0.1-7.4,0.4-14.9,1.6-22.2c0.8-5.2,2.4-10.2,4.9-14.8c1.8-3.5,4.7-6.3,8.1-8.2
	c3.5-1.8,7.4-2.6,11.3-2.6c3.9-0.1,7.7,0.7,11.2,2.4c3.2,1.8,5.8,4.6,7.4,8c2.2,4.6,3.5,9.6,4.1,14.7c0.9,7.5,1.4,15,1.3,22.6
	c0.1,7.7-0.4,15.4-1.5,23c-0.7,5.3-2.2,10.5-4.6,15.3c-1.7,3.6-4.5,6.5-7.9,8.4c-3.5,1.8-7.5,2.7-11.5,2.6
	c-3.8,0.1-7.6-0.7-11.1-2.3c-3.3-1.8-6-4.6-7.5-8c-1.9-3.8-3.4-8.8-4.3-15.1C58,245.5,57.5,237.5,57.6,229.6z M65.8,231.8
	c-0.1,6.1,0.2,12.1,0.9,18.2c0.4,4.1,1.3,8.2,2.8,12.1c1,2.7,2.8,5.1,5.1,6.8c2.3,1.4,4.9,2.2,7.6,2.1c2.8,0.1,5.5-0.7,7.9-2.2
	c2.5-1.8,4.3-4.3,5.4-7.2c1.6-4.2,2.6-8.5,3-12.9c0.7-6.4,1-12.9,0.9-19.4c0.1-6.3-0.2-12.5-0.9-18.8c-0.4-4.2-1.3-8.4-2.8-12.3
	c-0.9-2.7-2.7-5.1-5.1-6.8c-4.7-2.8-10.7-2.8-15.4,0.1c-2.5,1.9-4.3,4.4-5.4,7.3c-1.6,4.2-2.7,8.7-3.2,13.2
	C66.1,218.6,65.8,225.2,65.8,231.8z"/>
<path class="st0" d="M143.2,239.5c-0.3-0.6-0.8-1.8-1.5-3.6s-1.6-3.9-2.5-6.4s-2-5.2-3.2-8.2s-2.3-5.9-3.4-8.8s-2.2-5.7-3.2-8.4
	s-1.9-4.9-2.6-6.8c0,1.7,0,3.9,0.1,6.7c0,2.7,0.1,5.7,0.1,8.9c0,3.2,0.1,6.4,0.1,9.8c0,3.3,0.1,6.4,0.1,9.2c0,2.8,0.1,5.2,0.1,7.1
	v36.6c0,0.3,0,0.7-0.1,1c-0.1,0.2-0.4,0.4-0.8,0.5c-0.7,0.2-1.4,0.2-2.2,0.2h-4.2V185c0-1.3,0.6-1.9,1.8-1.9h5.2l16.2,37.2
	c0.3,0.7,0.8,2,1.5,3.9s1.6,4.1,2.6,6.7s2.1,5.4,3.3,8.4s2.3,6,3.5,8.9s2.2,5.7,3.2,8.2c1,2.6,1.8,4.7,2.6,6.4
	c-0.1-1.3-0.2-3.3-0.3-6s-0.2-5.6-0.2-8.8c0-3.2-0.1-6.6-0.1-10s0-6.6-0.1-9.6c0-3-0.1-5.5-0.1-7.6v-35.9c0-0.4,0-0.7,0.1-1.1
	c0.2-0.3,0.5-0.5,0.8-0.6c0.7-0.2,1.5-0.2,2.2-0.2h4.2v92.6c0.1,0.8-0.5,1.6-1.3,1.8c-0.1,0-0.3,0-0.4,0h-5.1L143.2,239.5z"/>
<path class="st0" d="M205.5,182c4.4,0,7.6,0.8,9.6,2.4s3,3,3,4.4c0,0.9-0.1,1.7-0.4,2.6c-0.2,0.7-0.5,1.4-0.9,2
	c-0.4-0.4-0.9-0.8-1.4-1.1c-0.7-0.5-1.5-1-2.2-1.4c-1-0.5-2-0.9-3-1.2c-1.2-0.4-2.4-0.5-3.6-0.5c-2.4,0-4.8,0.5-7,1.5
	c-2.3,1-4.4,3-6.3,6.1c-1.8,3.1-3.3,7.7-4.5,13.7c-1.2,6.1-1.8,14.2-1.8,24.3c-0.1,6.2,0.3,12.5,1.3,18.7c0.6,3.8,1.9,7.5,3.7,10.9
	c1.5,2.6,3.2,4.2,5.1,4.9c1.9,0.7,4,1.1,6,1.1c3,0,5.9-0.7,8.5-2c2.1-1,3.9-2.3,5.5-4c0.4,0.7,0.7,1.4,0.9,2.2
	c0.3,0.8,0.4,1.7,0.4,2.6c0,1.2-0.5,2.3-1.3,3.2c-1,1.2-2.2,2.2-3.5,3c-1.6,1-3.4,1.7-5.2,2.2c-2.2,0.6-4.4,0.9-6.7,0.9
	c-2.7,0-5.4-0.3-8.1-1c-2.7-0.7-5.1-2.5-7.2-5.5c-2.1-3-3.8-7.4-5.1-13.3c-1.3-5.9-2-13.9-2-24c0-11.9,0.8-21.3,2.4-28.3
	s3.7-12.3,6.2-15.8c2.5-3.5,5.3-5.9,8.4-6.9C199.3,182.6,202.4,182,205.5,182z"/>
<path class="st0" d="M261.6,270.5c0.1,1.9,0,3.9-0.2,5.8c-0.1,0.7-0.7,1.2-1.4,1.1h-32.2V185c0-0.3,0.1-0.7,0.3-0.9
	c0.2-0.2,0.4-0.4,0.5-0.6c0.2-0.3,0.6-0.4,0.9-0.3h32.2c0,3.1,0,5-0.1,5.7c0,0.6-0.5,1.1-1.1,1.2c0,0-0.1,0-0.1,0H235v32.5h23.7
	c0,1.9,0,3.7-0.2,5.6c0,0.7-0.6,1.3-1.4,1.3c0,0,0,0-0.1,0H235v41.2L261.6,270.5z"/>
<path class="st0" d="M313.8,190.1v85.5c0,0.3,0,0.7-0.1,1c-0.1,0.2-0.4,0.4-0.9,0.5c-0.7,0.2-1.5,0.2-2.2,0.2h-4.2v-87.3h-19.8V185
	c0-1.3,0.6-1.9,1.8-1.9h45.8v5.2c0.1,0.8-0.5,1.6-1.3,1.8c-0.1,0-0.3,0-0.4,0L313.8,190.1z"/>
<path class="st0" d="M337.5,229.6c-0.1-7.4,0.4-14.9,1.6-22.2c0.8-5.2,2.4-10.2,4.9-14.8c1.8-3.5,4.7-6.3,8.1-8.2
	c3.5-1.8,7.4-2.6,11.3-2.6c3.9-0.1,7.7,0.7,11.2,2.4c3.2,1.8,5.8,4.6,7.4,8c2.1,4.6,3.5,9.6,4.1,14.7c0.9,7.5,1.4,15,1.3,22.6
	c0.1,7.7-0.4,15.4-1.5,23c-0.7,5.3-2.2,10.5-4.6,15.3c-1.7,3.6-4.5,6.5-8,8.4c-3.5,1.8-7.5,2.7-11.5,2.6c-3.8,0.1-7.6-0.7-11.1-2.3
	c-3.3-1.8-6-4.6-7.5-8c-1.9-3.8-3.4-8.8-4.3-15.1C337.9,245.4,337.4,237.5,337.5,229.6z M345.7,231.8c-0.1,6.1,0.2,12.1,0.9,18.2
	c0.4,4.1,1.3,8.2,2.8,12.1c1,2.7,2.8,5.1,5.1,6.8c2.3,1.4,4.9,2.2,7.6,2.1c2.8,0.1,5.5-0.7,7.8-2.2c2.5-1.8,4.3-4.3,5.4-7.2
	c1.6-4.2,2.6-8.5,3-12.9c0.7-6.4,1-12.9,0.9-19.4c0.1-6.3-0.2-12.5-0.9-18.8c-0.4-4.2-1.3-8.4-2.8-12.3c-0.9-2.7-2.7-5.1-5-6.8
	c-4.7-2.8-10.7-2.8-15.4,0.1c-2.4,1.9-4.3,4.4-5.3,7.3c-1.6,4.2-2.7,8.7-3.2,13.2C346,218.6,345.7,225.2,345.7,231.8L345.7,231.8z"
	/>
<rect x="272.1" y="183.1" class="st1" width="6.4" height="106.9"/>
<path class="st1" d="M301,92.8c-5.2-3.8-16-15.8-16.5-16.9c-0.3-0.7-0.3-6-0.2-10.6v-0.5H268l-0.7,8.8c-0.9,0.9-5.2,5.2-6.1,10
	c-0.1,0.3-1.6,7.7-0.7,13.8c0.7,4.9,7.7,20.4,9.4,23.9c1.6,3.2,1.7,6.9,1.7,10.6c0,7.3-17.1,11.7-18.6,34.1h19.2v12.8h6.4v-12.8
	l15.7-0.1l0.1-0.4c2.5-6.6,5.7-19,4.7-24.9c-0.3-1.7-0.8-3.7-1.2-5.8c-1.2-5-2.5-10.7-1.8-13.9c0.9-4.4,5.6-11.1,7.8-14.4l0.3-0.4
	C306.6,102.4,306.3,96.7,301,92.8z"/>
<rect x="161.2" y="289.5" class="st1" width="217.5" height="1.5"/>
</svg>
